<svg xmlns="http://www.w3.org/2000/svg" width="32" height="32" id="internet"><path fill="#2b4255" style="line-height:normal;text-indent:0;text-align:start;text-decoration-line:none;text-decoration-style:solid;text-decoration-color:#000;text-transform:none;block-progression:tb;isolation:auto;mix-blend-mode:normal" d="M277.035 1141.111v10h14v-10h-14zm1 1h12v8h-12v-8z" color="#000" font-family="sans-serif" font-weight="400" overflow="visible" transform="translate(-275.036 -1139.112)"></path><path fill="#2b4255" fill-rule="evenodd" style="line-height:normal;text-indent:0;text-align:start;text-decoration-line:none;text-decoration-style:solid;text-decoration-color:#000;text-transform:none;block-progression:tb;isolation:auto;mix-blend-mode:normal" d="M282.035 1151.012v2.2h1v-2.2h-1zm3 0v2.2h1v-2.2h-1z" color="#000" font-family="sans-serif" font-weight="400" overflow="visible" transform="translate(-275.036 -1139.112)"></path><path fill="#2b4255" fill-rule="evenodd" style="line-height:normal;text-indent:0;text-align:start;text-decoration-line:none;text-decoration-style:solid;text-decoration-color:#000;text-transform:none;block-progression:tb;isolation:auto;mix-blend-mode:normal" d="M281.086 1153.111v1h6v-1h-6z" color="#000" font-family="sans-serif" font-weight="400" overflow="visible" transform="translate(-275.036 -1139.112)"></path><path fill="#2b4255" style="line-height:normal;text-indent:0;text-align:start;text-decoration-line:none;text-decoration-style:solid;text-decoration-color:#000;text-transform:none;block-progression:tb;isolation:auto;mix-blend-mode:normal" d="M290.035 1156.111v10h14v-10h-14zm1 1h12v8h-12v-8z" color="#000" font-family="sans-serif" font-weight="400" overflow="visible" transform="translate(-275.036 -1139.112)"></path><path fill="#2b4255" fill-rule="evenodd" style="line-height:normal;text-indent:0;text-align:start;text-decoration-line:none;text-decoration-style:solid;text-decoration-color:#000;text-transform:none;block-progression:tb;isolation:auto;mix-blend-mode:normal" d="M295.035 1166.012v2.2h1v-2.2h-1zm3 0v2.2h1v-2.2h-1z" color="#000" font-family="sans-serif" font-weight="400" overflow="visible" transform="translate(-275.036 -1139.112)"></path><path fill="#2b4255" fill-rule="evenodd" style="line-height:normal;text-indent:0;text-align:start;text-decoration-line:none;text-decoration-style:solid;text-decoration-color:#000;text-transform:none;block-progression:tb;isolation:auto;mix-blend-mode:normal" d="M294.086 1168.111v1h6v-1h-6z" color="#000" font-family="sans-serif" font-weight="400" overflow="visible" transform="translate(-275.036 -1139.112)"></path><path fill="#f8b84e" d="M4 4h10v6H4zm13 15h10v6H17z"></path><path fill="#2b4255" fill-rule="evenodd" style="line-height:normal;text-indent:0;text-align:start;text-decoration-line:none;text-decoration-style:solid;text-decoration-color:#000;text-transform:none;block-progression:tb;isolation:auto;mix-blend-mode:normal" d="M292.02 1147.611v1h4v-1h-4z" color="#000" font-family="sans-serif" font-weight="400" overflow="visible" transform="translate(-275.036 -1139.112)"></path><path fill="#f8b84e" d="M25.5 9a1.5 1.5 0 0 1-1.5 1.5A1.5 1.5 0 0 1 22.5 9 1.5 1.5 0 0 1 24 7.5 1.5 1.5 0 0 1 25.5 9z"></path><path fill="#2b4255" fill-rule="evenodd" style="line-height:normal;text-indent:0;text-align:start;text-decoration-line:none;text-decoration-style:solid;text-decoration-color:#000;text-transform:none;block-progression:tb;isolation:auto;mix-blend-mode:normal" d="M298.535 1151.111v4h1v-4h-1zm-13.5 9.5v1h4v-1h-4z" color="#000" font-family="sans-serif" font-weight="400" overflow="visible" transform="translate(-275.036 -1139.112)"></path><path fill="#f8b84e" d="M8.5 22A1.5 1.5 0 0 1 7 23.5 1.5 1.5 0 0 1 5.5 22 1.5 1.5 0 0 1 7 20.5 1.5 1.5 0 0 1 8.5 22z"></path><path fill="#2b4255" fill-rule="evenodd" style="line-height:normal;text-indent:0;text-align:start;text-decoration-line:none;text-decoration-style:solid;text-decoration-color:#000;text-transform:none;block-progression:tb;isolation:auto;mix-blend-mode:normal" d="M281.535 1155.111v4h1v-4h-1z" color="#000" font-family="sans-serif" font-weight="400" overflow="visible" transform="translate(-275.036 -1139.112)"></path></svg>